<?xml version="1.0" standalone="no"?>
<!DOCTYPE svg PUBLIC "-//W3C//DTD SVG 20010904//EN"
 "http://www.w3.org/TR/2001/REC-SVG-20010904/DTD/svg10.dtd">
<svg version="1.0" xmlns="http://www.w3.org/2000/svg"
 width="614.000000pt" height="169.000000pt" viewBox="0 0 614.000000 169.000000"
 preserveAspectRatio="xMidYMid meet">

<g transform="translate(0.000000,169.000000) scale(0.100000,-0.100000)"
fill="#ffffff" stroke="none">
<path d="M3563 1671 c-54 -25 -189 -154 -263 -252 -31 -42 -117 -174 -190
-294 -105 -170 -145 -226 -187 -263 -109 -94 -139 -100 -88 -17 32 51 31 70
-1 100 -19 18 -38 25 -66 25 -22 0 -61 11 -89 26 -83 41 -90 37 -327 -190 -45
-43 -85 -76 -88 -73 -7 6 16 47 61 111 19 26 35 52 35 57 0 15 -44 57 -67 64
-17 5 -39 -10 -110 -74 -90 -82 -125 -102 -102 -58 7 12 23 35 35 50 39 46 30
84 -29 121 -39 26 -75 8 -122 -60 -54 -78 -184 -188 -202 -170 -4 3 4 28 17
54 41 79 41 80 17 107 -15 18 -36 28 -67 32 -25 3 -69 17 -98 30 -72 34 -101
26 -177 -51 -71 -71 -110 -142 -100 -184 9 -42 62 -89 117 -103 43 -12 52 -11
104 11 51 21 61 22 88 10 17 -7 52 -15 77 -17 41 -4 51 -1 81 26 20 17 39 31
42 31 4 0 24 -12 46 -26 35 -23 46 -26 90 -20 l51 7 -15 -28 c-7 -15 -91 -154
-185 -308 -102 -165 -171 -288 -169 -300 5 -32 49 -51 95 -40 36 10 41 15 98
130 99 199 182 309 373 498 65 64 126 117 135 117 8 0 25 -12 37 -27 29 -38
89 -73 123 -73 15 0 44 7 64 15 42 18 106 20 135 4 32 -17 87 -13 111 9 37 33
46 34 81 13 41 -26 56 -21 92 30 14 21 33 39 42 39 8 0 35 -19 59 -41 42 -39
48 -41 93 -37 33 3 71 18 120 47 l71 42 52 -55 c63 -66 105 -78 178 -53 58 21
92 21 145 1 38 -15 45 -15 76 0 18 9 64 52 102 97 70 82 103 106 130 96 12 -5
13 -13 5 -39 -17 -60 -11 -92 22 -124 27 -26 37 -29 95 -29 64 0 66 1 105 43
44 47 55 51 64 23 3 -11 22 -34 41 -50 53 -47 110 -39 208 28 25 17 50 31 57
31 7 0 32 -19 55 -41 50 -49 106 -61 168 -35 49 20 86 20 145 0 35 -12 52 -14
72 -6 37 15 203 208 195 227 -9 25 -28 17 -100 -45 -39 -33 -75 -60 -82 -60
-24 0 -25 19 -4 59 40 79 20 113 -74 125 -27 3 -63 15 -81 26 -18 11 -49 20
-69 20 -30 0 -47 -10 -107 -65 -115 -105 -283 -225 -317 -225 -22 0 -12 45 22
95 41 61 156 187 199 217 l32 23 695 5 c633 5 695 6 698 21 5 27 -58 58 -138
69 -55 8 -127 7 -289 -5 -315 -22 -594 -35 -777 -35 l-161 0 -44 30 c-24 16
-50 30 -57 30 -7 0 -37 -13 -68 -29 -30 -17 -75 -33 -99 -37 -55 -8 -62 -17
-33 -44 l22 -21 -24 -45 c-67 -122 -196 -252 -223 -225 -8 8 -4 25 18 65 25
47 28 57 17 80 -14 32 -55 43 -96 27 -66 -27 -66 -27 -66 17 0 71 -53 95 -107
48 -25 -22 -28 -31 -27 -81 l2 -56 -66 -50 c-36 -27 -69 -49 -73 -49 -16 0
-10 24 16 65 35 57 33 91 -7 115 -18 11 -49 20 -70 20 -20 0 -58 12 -85 26
-66 33 -90 26 -171 -49 -99 -92 -309 -185 -325 -144 -11 29 27 56 113 84 70
23 86 32 88 50 4 25 -37 73 -62 73 -8 0 -43 -20 -78 -45 -142 -100 -181 -125
-186 -120 -9 9 30 45 173 159 261 209 488 432 522 515 18 41 11 69 -24 112
-50 59 -116 73 -190 40z m127 -99 c0 -5 -28 -47 -62 -93 -62 -83 -325 -355
-335 -346 -12 13 199 270 312 379 66 65 85 78 85 60z m-2050 -680 c0 -17 -98
-149 -122 -163 -7 -5 -18 -3 -25 3 -10 8 -8 18 8 50 44 87 139 162 139 110z
m1050 5 c0 -22 -74 -131 -105 -155 -60 -48 -73 -14 -24 63 17 27 45 61 61 77
32 29 68 37 68 15z m1030 -3 c0 -24 -67 -119 -105 -148 -58 -44 -69 -33 -34
35 43 85 139 163 139 113z m1273 2 c11 -29 -103 -176 -137 -176 -37 0 1 88 66
150 43 42 62 49 71 26z"/>
<path d="M1715 1586 c-173 -58 -442 -163 -625 -245 -132 -60 -491 -244 -534
-274 -61 -43 -111 -157 -69 -157 10 0 232 104 494 230 262 127 482 230 488
230 6 0 11 -5 11 -11 0 -11 -289 -394 -449 -594 -110 -138 -267 -298 -361
-369 -36 -27 -102 -67 -148 -89 -75 -36 -92 -41 -181 -45 -146 -7 -184 20
-201 139 -10 73 -32 100 -80 101 -46 1 -63 -24 -57 -84 10 -109 101 -192 245
-224 93 -21 179 -14 294 22 292 92 478 268 838 789 258 373 332 464 431 528
64 41 104 81 94 96 -9 16 -15 15 -190 -43z"/>
<path d="M3920 485 c0 -54 -1 -55 -21 -44 -29 15 -85 3 -104 -24 -9 -13 -15
-43 -15 -75 0 -43 5 -58 25 -77 28 -29 61 -32 93 -9 20 14 22 14 22 0 0 -9 7
-16 15 -16 13 0 15 23 15 150 0 127 -2 150 -15 150 -12 0 -15 -13 -15 -55z
m-12 -77 c18 -18 15 -98 -5 -120 -37 -41 -93 -7 -93 57 0 43 25 75 59 75 15 0
32 -5 39 -12z"/>
<path d="M4574 525 c-7 -18 3 -35 21 -35 15 0 24 19 18 38 -6 17 -32 15 -39
-3z"/>
<path d="M3180 386 c0 -139 1 -146 20 -146 18 0 20 7 20 54 l0 53 51 7 c91 12
128 82 75 143 -21 24 -32 28 -95 31 l-71 4 0 -146z m134 98 c9 -8 16 -27 16
-41 0 -39 -27 -63 -72 -63 l-38 0 0 60 0 60 39 0 c23 0 46 -7 55 -16z"/>
<path d="M4440 490 c0 -11 -9 -28 -20 -37 -24 -21 -26 -33 -5 -33 12 0 15 -15
15 -74 0 -96 16 -116 78 -100 31 9 22 30 -11 26 l-27 -3 0 75 c0 74 1 76 25
76 16 0 25 6 25 15 0 9 -9 15 -25 15 -21 0 -25 5 -25 30 0 20 -5 30 -15 30 -8
0 -15 -9 -15 -20z"/>
<path d="M3410 345 c0 -87 3 -105 15 -105 12 0 15 14 15 63 0 76 18 107 61
107 22 0 29 5 29 20 0 27 -37 26 -67 -2 l-23 -21 0 21 c0 13 -6 22 -15 22 -12
0 -15 -18 -15 -105z"/>
<path d="M3605 438 c-34 -20 -44 -41 -45 -94 0 -78 50 -118 123 -98 62 18 85
117 39 174 -21 25 -88 36 -117 18z m89 -40 c36 -51 9 -128 -44 -128 -35 0 -60
31 -60 75 0 68 69 103 104 53z"/>
<path d="M4013 363 c4 -74 8 -90 27 -105 27 -22 58 -23 88 -2 20 14 22 14 22
0 0 -9 7 -16 15 -16 12 0 15 18 15 105 0 85 -3 105 -15 105 -11 0 -15 -18 -17
-82 -3 -80 -4 -83 -31 -92 -49 -18 -62 0 -65 93 -3 75 -4 81 -24 81 -20 0 -21
-4 -15 -87z"/>
<path d="M4275 438 c-34 -19 -44 -41 -45 -90 0 -61 6 -76 42 -94 34 -18 89
-12 107 10 15 17 0 28 -19 15 -8 -5 -27 -9 -42 -9 -51 0 -77 79 -42 129 15 20
22 23 60 17 46 -6 58 6 25 24 -25 13 -61 12 -86 -2z"/>
<path d="M4570 345 c0 -98 1 -105 20 -105 19 0 20 7 20 105 0 98 -1 105 -20
105 -19 0 -20 -7 -20 -105z"/>
<path d="M4705 438 c-34 -20 -44 -41 -45 -94 0 -78 50 -118 123 -98 62 18 85
117 39 174 -21 25 -88 36 -117 18z m89 -40 c36 -51 9 -128 -44 -128 -35 0 -60
31 -60 75 0 68 69 103 104 53z"/>
<path d="M4890 345 c0 -87 3 -105 15 -105 12 0 15 15 15 73 0 79 15 107 56
107 35 0 44 -20 44 -102 0 -71 2 -78 20 -78 18 0 20 7 20 80 0 73 -3 83 -25
105 -28 29 -61 32 -93 9 -20 -14 -22 -14 -22 0 0 9 -7 16 -15 16 -12 0 -15
-18 -15 -105z"/>
</g>
</svg>
